<svg xmlns="http://www.w3.org/2000/svg" viewBox="0 0 250.52 250.32"><title>my-concerts</title><g id="Capa_2" data-name="Capa 2"><g id="Capa_1-2" data-name="Capa 1"><path d="M219.05,158.22V66L94,91v2.41c0,40.82-.16,81.65.1,122.48.07,11.72-5.24,19.82-14.61,25.79-10.16,6.46-21.51,8.79-33.39,8.67a60.48,60.48,0,0,1-28.26-6.76c-7-3.74-13-8.62-16-16.23-3.56-8.82-1.56-16.75,4.5-23.75,6.71-7.77,15.61-11.72,25.38-14a68.92,68.92,0,0,1,29.47-.28c.3.06.61.14.91.18a2.2,2.2,0,0,0,.59-.18v-2.5q0-69.14,0-138.28c0-6.12,1.86-11.41,7.22-14.6a30.13,30.13,0,0,1,9.35-3.11Q154.94,15.5,230.76.39c10.81-2.16,19.74,4.87,19.75,15.82q0,85.42,0,170.84c0,8.88-4.35,15.46-11,20.8-6.93,5.54-15,8.58-23.61,10.05-15.77,2.69-30.88.9-44.76-7.57-5.61-3.42-10.23-7.92-12.76-14.15-3.58-8.81-1.62-16.74,4.35-23.79,6.24-7.38,14.56-11.34,23.7-13.71A68.75,68.75,0,0,1,219.05,158.22Z"/></g></g></svg>