<svg xmlns="http://www.w3.org/2000/svg" viewBox="0 0 1676 149.64"><defs><style>.cls-1{fill:#fcdc3d;}</style></defs><title>navbar</title><g id="Capa_2" data-name="Capa 2"><g id="Capa_3" data-name="Capa 3"><path class="cls-1" d="M1676,149.64l0-143.45-3.58-1.49c-1.11,0-2.21-.12-3.31-.12q-358.71,0-717.42,0A82.71,82.71,0,0,0,938.5,5.72c-15.67,2.55-24.37,17.86-18.73,32.6,7.26,19,7.37,38.28-.2,57-11.4,28.19-32.37,45.8-61.83,54.32ZM1389.71,44.37h0Zm21,73.19h0Zm6-.47,0-.08h0A.3.3,0,0,1,1416.69,117.09Zm5.83,1.56h0Zm154.14-9.85h0a0,0,0,0,0,0,0Z"/><path class="cls-1" d="M818.26,149.64c-29.46-8.52-50.43-26.13-61.83-54.32-7.57-18.72-7.46-38-.2-57,5.64-14.74-3.06-30-18.73-32.6a82.71,82.71,0,0,0-13.14-1.09q-358.71-.09-717.42,0c-1.1,0-2.2.08-3.31.12L.05,6.19,0,149.64Zm-532-105.28h0Zm-20.94,73.19h0Zm-6.07-.54h0l0,.08A.3.3,0,0,1,259.27,117Zm-5.8,1.63h0ZM99.34,108.8h0a0,0,0,0,0,0,0h0Z"/><circle class="cls-1" cx="838.35" cy="65.45" r="65.45"/></g></g></svg>