<svg xmlns="http://www.w3.org/2000/svg" viewBox="0 0 281.64 281.72"><title>search</title><g id="Capa_2" data-name="Capa 2"><g id="Capa_1-2" data-name="Capa 1"><path d="M167.3,191.91c-51,35.21-112.93,19.62-144.28-20.25A105.78,105.78,0,0,1,170.9,22.42c42,32.77,55.36,95.5,20.87,145a11.85,11.85,0,0,1,1.81,1.26q41.14,41.12,82.29,82.22A18.43,18.43,0,0,1,279.44,273c-5,9-18.14,11.65-26,5-1-.86-2-1.76-3-2.71q-40.92-40.89-81.82-81.79A18.77,18.77,0,0,1,167.3,191.91ZM105.66,35.29c-39,.17-70.61,31.83-70.37,70.52.25,39.12,31.73,70.55,70.52,70.42a70.61,70.61,0,0,0,70.42-70.57C176.15,66.77,144.41,35.13,105.66,35.29Z"/></g></g></svg>