<?xml version="1.0" encoding="utf-8"?>
<!-- Generator: Adobe Illustrator 24.1.2, SVG Export Plug-In . SVG Version: 6.00 Build 0)  -->
<svg version="1.1" id="Capa_1" xmlns="http://www.w3.org/2000/svg" xmlns:xlink="http://www.w3.org/1999/xlink" x="0px" y="0px"
	 viewBox="0 0 24 24" style="enable-background:new 0 0 24 24;" xml:space="preserve">
<style type="text/css">
	.st0{fill:#E5E5E5;}
	.st1{fill:#BCBCBC;}
</style>
<path class="st0" d="M23.9,12.1c0,3.3-1.3,6.2-3.5,8.4c0-1.7-1.9-5.6-4.6-6.8C14.7,14.5,13.4,15,12,15s-2.7-0.5-3.8-1.3
	c-2.8,1.2-4.6,5.1-4.6,6.8c-2.1-2.1-3.5-5.1-3.5-8.4C0.1,5.5,5.4,0.2,12,0.2S23.9,5.5,23.9,12.1z"/>
<g>
	<path class="st1" d="M20.4,20.6L20.4,20.6L20.4,20.6C20.4,20.5,20.4,20.5,20.4,20.6z M3.6,20.6L3.6,20.6
		C3.6,20.5,3.6,20.5,3.6,20.6L3.6,20.6z M12,3.7c-2.7,0-4.9,2.2-4.9,4.9c0,2.7,2.2,4.9,4.9,4.9s4.9-2.2,4.9-4.9
		C16.9,5.9,14.7,3.7,12,3.7z"/>
	<path class="st1" d="M20.4,20.5C20.4,20.5,20.4,20.5,20.4,20.5C18.2,22.7,15.3,24,12,24s-6.2-1.3-8.4-3.4c0,0,0,0-0.1-0.1
		c0-1.7,1.8-5.6,4.6-6.8C9.3,14.5,10.6,15,12,15s2.7-0.5,3.8-1.3C18.6,14.9,20.4,18.8,20.4,20.5z"/>
</g>
</svg>
